<svg xmlns="http://www.w3.org/2000/svg" width="122.535" height="53.821" viewBox="0 0 122.535 53.821">
  <defs>
    <style>
      .cls-1, .cls-2, .cls-3, .cls-4 {
        fill: #fff;
      }

      .cls-2 {
        opacity: 0.75;
      }

      .cls-3 {
        opacity: 0.86;
      }

      .cls-4 {
        opacity: 0.82;
      }
    </style>
  </defs>
  <g id="Grupo_14" data-name="Grupo 14" transform="translate(-1053.569 -192.394)">
    <g id="Grupo_7" data-name="Grupo 7" transform="translate(1084.997 192.394)">
      <path id="Caminho_45" data-name="Caminho 45" class="cls-1" d="M1189.108,218.09c2.988-7.246,5.736-15.469,8.664-22.613a4.448,4.448,0,0,1,4.541-3.032c2.45,0,5.2,2.107,5.2,4.317a3.15,3.15,0,0,1-.418,1.49l-12.249,29.7c-1.255,3.032-3.167,4.523-5.8,4.523-2.45,0-4.242-1.388-5.378-4.111L1171,198.15a5.592,5.592,0,0,1-.3-1.645c0-2.724,1.613-4.111,4.78-4.111a4.653,4.653,0,0,1,4.78,3.032Z" transform="translate(-1170.705 -192.394)"/>
      <path id="Caminho_46" data-name="Caminho 46" class="cls-1" d="M1314.344,196.749c0-2.827,1.613-4.163,4.78-4.163,3.227,0,4.84,1.336,4.84,4.163v31.709c0,2.827-1.613,4.163-4.84,4.163-3.167,0-4.78-1.336-4.78-4.163Z" transform="translate(-1275.805 -192.535)"/>
      <path id="Caminho_47" data-name="Caminho 47" class="cls-1" d="M1362.891,196.389c0-2.57,1.613-3.8,4.72-3.8,3.227,0,4.84,1.233,4.84,3.8v11.2l14.52-13.722a4.366,4.366,0,0,1,3.286-1.182c2.569,0,5.019,2.107,5.019,4.266a3.362,3.362,0,0,1-1.374,2.878c-3.824,3.649-6.393,5.91-10.337,9.662l11.592,16.291a3.374,3.374,0,0,1,1.2,2.724c0,2.724-3.526,4.163-4.84,4.163a5.363,5.363,0,0,1-4.183-1.9l-10.755-15.058-4.123,3.8v9.2c0,2.57-1.553,3.906-4.72,3.906-3.227,0-4.84-1.336-4.84-3.906Z" transform="translate(-1311.327 -192.535)"/>
    </g>
    <path id="Caminho_48" data-name="Caminho 48" class="cls-2" d="M1053.569,199.767l15.313,19.47-15.076,15.019" transform="translate(0 -5.395)"/>
    <path id="Caminho_49" data-name="Caminho 49" class="cls-3" d="M1112.224,200.367l15.7,19.153-14.774,15.325" transform="translate(-42.917 -5.834)"/>
    <path id="Caminho_50" data-name="Caminho 50" class="cls-4" d="M1084.123,203.584l14.714,19.143-14.819,15.351" transform="translate(-22.279 -8.187)"/>
    <path id="Caminho_51" data-name="Caminho 51" class="cls-1" d="M1146.288,351.768" transform="translate(-67.842 -116.614)"/>
    <g id="Grupo_8" data-name="Grupo 8" transform="translate(1084.287 237.009)">
      <path id="Caminho_52" data-name="Caminho 52" class="cls-1" d="M1218.952,373.932h-.6l1.688-7.991h-2.523l.117-.549h5.684l-.111.549h-2.57Z" transform="translate(-1217.521 -364.843)"/>
      <path id="Caminho_53" data-name="Caminho 53" class="cls-1" d="M1236.315,378.625a2,2,0,0,1-1.577-.64,2.6,2.6,0,0,1-.566-1.784,5.1,5.1,0,0,1,.415-2.027,3.835,3.835,0,0,1,1.142-1.542,2.533,2.533,0,0,1,1.6-.572,1.533,1.533,0,0,1,1.063.356,1.238,1.238,0,0,1,.4.97,1.763,1.763,0,0,1-.955,1.612,5.76,5.76,0,0,1-2.836.555h-.193a4.213,4.213,0,0,0-.035.572,2.2,2.2,0,0,0,.432,1.469,1.548,1.548,0,0,0,1.244.5,3.565,3.565,0,0,0,1.612-.426v.549A3.9,3.9,0,0,1,1236.315,378.625Zm.946-6.063a1.964,1.964,0,0,0-1.422.675,3.939,3.939,0,0,0-.949,1.8h.286q3.02,0,3.02-1.577a.873.873,0,0,0-.254-.645A.919.919,0,0,0,1237.261,372.561Z" transform="translate(-1228.949 -369.419)"/>
      <path id="Caminho_54" data-name="Caminho 54" class="cls-1" d="M1253.644,378.625a2.059,2.059,0,0,1-1.6-.646,2.564,2.564,0,0,1-.587-1.791,5.22,5.22,0,0,1,.43-2.111,3.491,3.491,0,0,1,1.16-1.5,2.856,2.856,0,0,1,1.694-.517,3.747,3.747,0,0,1,1.408.251l-.164.526a3.141,3.141,0,0,0-1.273-.274,2.219,2.219,0,0,0-1.358.45,2.952,2.952,0,0,0-.949,1.3,4.915,4.915,0,0,0-.345,1.869,2.119,2.119,0,0,0,.429,1.422,1.519,1.519,0,0,0,1.218.5,3.342,3.342,0,0,0,1.536-.344v.537A3.575,3.575,0,0,1,1253.644,378.625Z" transform="translate(-1240.811 -369.419)"/>
      <path id="Caminho_55" data-name="Caminho 55" class="cls-1" d="M1271.509,372.73l.87-4.042a4.2,4.2,0,0,0,.123-.911,1.006,1.006,0,0,0-.254-.73,1.048,1.048,0,0,0-.786-.263,2.146,2.146,0,0,0-1.229.391,3.151,3.151,0,0,0-.97,1.1,6.087,6.087,0,0,0-.6,1.67l-.6,2.786h-.572l1.939-9.089h.561l-.5,2.4q-.257,1.169-.385,1.63h.035a3.36,3.36,0,0,1,1.089-1.025,2.645,2.645,0,0,1,1.34-.365,1.557,1.557,0,0,1,1.122.38,1.409,1.409,0,0,1,.4,1.069,5.316,5.316,0,0,1-.14,1.063l-.865,3.937Z" transform="translate(-1251.818 -363.641)"/>
      <path id="Caminho_56" data-name="Caminho 56" class="cls-1" d="M1303.441,378.482l-.146-1h-.047a3.02,3.02,0,0,1-.984.868,2.629,2.629,0,0,1-1.194.254,2.067,2.067,0,0,1-1.455-.479,1.713,1.713,0,0,1-.52-1.326,1.636,1.636,0,0,1,.774-1.443,4.209,4.209,0,0,1,2.24-.544l1.209-.035v-.421a2.159,2.159,0,0,0-.368-1.367,1.428,1.428,0,0,0-1.186-.461,3.966,3.966,0,0,0-1.828.491l-.216-.5a4.838,4.838,0,0,1,2.068-.491,2.062,2.062,0,0,1,1.563.543,2.389,2.389,0,0,1,.517,1.694v4.223Zm-2.337-.409a2.021,2.021,0,0,0,2.19-2.2v-.625l-1.11.047a4.192,4.192,0,0,0-1.907.418,1.2,1.2,0,0,0-.569,1.1,1.184,1.184,0,0,0,.365.926A1.483,1.483,0,0,0,1301.1,378.073Z" transform="translate(-1273.511 -369.393)"/>
      <path id="Caminho_57" data-name="Caminho 57" class="cls-1" d="M1325.294,378.456v-4.118a2.007,2.007,0,0,0-.4-1.393,1.629,1.629,0,0,0-1.25-.435,2.164,2.164,0,0,0-1.668.575,2.713,2.713,0,0,0-.529,1.866v3.5h-.578v-6.35h.491l.111.87h.035a2.386,2.386,0,0,1,2.2-.993q2.161,0,2.161,2.319v4.153Z" transform="translate(-1288.454 -369.367)"/>
      <path id="Caminho_58" data-name="Caminho 58" class="cls-1" d="M1344.884,366.258a2.636,2.636,0,0,1,1.192.251,2.372,2.372,0,0,1,.9.859h.035q-.035-.736-.035-1.443v-2.284h.573v9.089h-.38l-.146-.97h-.047a2.35,2.35,0,0,1-2.079,1.087,2.491,2.491,0,0,1-2.009-.818,3.588,3.588,0,0,1-.7-2.383,3.981,3.981,0,0,1,.689-2.518A2.4,2.4,0,0,1,1344.884,366.258Zm0,.526a1.8,1.8,0,0,0-1.563.73,3.617,3.617,0,0,0-.523,2.121q0,2.7,2.1,2.7a1.9,1.9,0,0,0,1.577-.625,3.316,3.316,0,0,0,.5-2.062v-.1a3.537,3.537,0,0,0-.493-2.117A1.885,1.885,0,0,0,1344.884,366.784Z" transform="translate(-1303.09 -363.641)"/>
      <path id="Caminho_59" data-name="Caminho 59" class="cls-1" d="M1379.928,371.461a2.049,2.049,0,0,1-.786,1.694,3.256,3.256,0,0,1-2.088.625,6.547,6.547,0,0,1-2.4-.345v-.6a6.076,6.076,0,0,0,2.354.391,2.637,2.637,0,0,0,1.667-.482,1.529,1.529,0,0,0,.616-1.265,1.459,1.459,0,0,0-.2-.8,1.871,1.871,0,0,0-.666-.581,8.23,8.23,0,0,0-1.355-.566,4.64,4.64,0,0,1-1.808-.973,2.083,2.083,0,0,1,.251-2.956,2.98,2.98,0,0,1,1.93-.6,5.655,5.655,0,0,1,2.261.456l-.216.514a5.272,5.272,0,0,0-2.033-.444,2.383,2.383,0,0,0-1.507.438,1.431,1.431,0,0,0-.561,1.192,1.56,1.56,0,0,0,.172.777,1.581,1.581,0,0,0,.564.546,7.719,7.719,0,0,0,1.343.581,7.25,7.25,0,0,1,1.5.669,2.144,2.144,0,0,1,.733.736A2.009,2.009,0,0,1,1379.928,371.461Z" transform="translate(-1325.371 -364.574)"/>
      <path id="Caminho_60" data-name="Caminho 60" class="cls-1" d="M1398.519,378.573a2.766,2.766,0,0,1-2.158-.853,3.425,3.425,0,0,1-.774-2.389,3.723,3.723,0,0,1,.748-2.433,2.468,2.468,0,0,1,2.015-.914,2.175,2.175,0,0,1,1.77.783,3.232,3.232,0,0,1,.648,2.126v.468h-4.573a3,3,0,0,0,.61,2,2.148,2.148,0,0,0,1.714.689,5.3,5.3,0,0,0,.955-.076,5.788,5.788,0,0,0,1.043-.327v.526a4.693,4.693,0,0,1-.993.318A5.545,5.545,0,0,1,1398.519,378.573Zm-.169-6.075a1.9,1.9,0,0,0-1.472.6,2.85,2.85,0,0,0-.648,1.744h3.925a2.769,2.769,0,0,0-.479-1.726A1.581,1.581,0,0,0,1398.35,372.5Z" transform="translate(-1339.74 -369.367)"/>
      <path id="Caminho_61" data-name="Caminho 61" class="cls-1" d="M1420.194,371.984a4.966,4.966,0,0,1,.864.082l-.111.555a3.381,3.381,0,0,0-.824-.1,1.6,1.6,0,0,0-1.332.689,2.808,2.808,0,0,0-.52,1.741v3.5h-.578v-6.35h.491l.058,1.145h.041a2.691,2.691,0,0,1,.835-.984A1.957,1.957,0,0,1,1420.194,371.984Z" transform="translate(-1354.913 -369.367)"/>
      <path id="Caminho_62" data-name="Caminho 62" class="cls-1" d="M1431.6,378.725l-2.454-6.35h.6l1.642,4.317a13.381,13.381,0,0,1,.49,1.449h.035q.24-.795.49-1.46l1.641-4.305h.6l-2.453,6.35Z" transform="translate(-1362.774 -369.636)"/>
      <path id="Caminho_63" data-name="Caminho 63" class="cls-1" d="M1449.783,365.524q0-.561.368-.561a.327.327,0,0,1,.283.146.717.717,0,0,1,.1.415.734.734,0,0,1-.1.415.323.323,0,0,1-.283.152Q1449.783,366.091,1449.783,365.524Zm.66,8.113h-.578v-6.35h.578Z" transform="translate(-1376.938 -364.548)"/>
      <path id="Caminho_64" data-name="Caminho 64" class="cls-1" d="M1460.4,378.573a2.719,2.719,0,0,1-2.132-.859,3.457,3.457,0,0,1-.771-2.395,3.516,3.516,0,0,1,.8-2.456,2.814,2.814,0,0,1,2.191-.879,4.407,4.407,0,0,1,1.577.286l-.157.514a4.637,4.637,0,0,0-1.431-.274,2.173,2.173,0,0,0-1.77.721,3.162,3.162,0,0,0-.6,2.077,3.067,3.067,0,0,0,.6,2.012,2.063,2.063,0,0,0,1.682.727,4.124,4.124,0,0,0,1.606-.31v.538A3.641,3.641,0,0,1,1460.4,378.573Z" transform="translate(-1382.23 -369.367)"/>
      <path id="Caminho_65" data-name="Caminho 65" class="cls-1" d="M1478.547,378.573a2.766,2.766,0,0,1-2.158-.853,3.426,3.426,0,0,1-.774-2.389,3.724,3.724,0,0,1,.748-2.433,2.467,2.467,0,0,1,2.015-.914,2.175,2.175,0,0,1,1.77.783,3.232,3.232,0,0,1,.648,2.126v.468h-4.574a3,3,0,0,0,.61,2,2.148,2.148,0,0,0,1.714.689,5.3,5.3,0,0,0,.955-.076,5.776,5.776,0,0,0,1.042-.327v.526a4.674,4.674,0,0,1-.993.318A5.535,5.535,0,0,1,1478.547,378.573Zm-.169-6.075a1.9,1.9,0,0,0-1.472.6,2.85,2.85,0,0,0-.648,1.744h3.925a2.77,2.77,0,0,0-.479-1.726A1.58,1.58,0,0,0,1478.378,372.5Z" transform="translate(-1394.668 -369.367)"/>
      <path id="Caminho_66" data-name="Caminho 66" class="cls-1" d="M1500.405,376.8a1.51,1.51,0,0,1-.648,1.311,3.157,3.157,0,0,1-1.84.459,4.389,4.389,0,0,1-2.021-.391v-.625a4.463,4.463,0,0,0,2.021.479,2.668,2.668,0,0,0,1.428-.312.95.95,0,0,0,.488-.832,1.013,1.013,0,0,0-.389-.806,4.264,4.264,0,0,0-1.276-.643,7.342,7.342,0,0,1-1.338-.593,1.854,1.854,0,0,1-.581-.561,1.411,1.411,0,0,1-.2-.762,1.3,1.3,0,0,1,.6-1.127,2.907,2.907,0,0,1,1.673-.415,5.009,5.009,0,0,1,1.951.386l-.216.526a4.571,4.571,0,0,0-1.735-.385,2.515,2.515,0,0,0-1.233.257.789.789,0,0,0-.455.713.985.985,0,0,0,.354.794,4.925,4.925,0,0,0,1.381.666,6.793,6.793,0,0,1,1.25.558,1.818,1.818,0,0,1,.587.564A1.38,1.38,0,0,1,1500.405,376.8Z" transform="translate(-1408.588 -369.367)"/>
    </g>
  </g>
</svg>
