<svg xmlns="http://www.w3.org/2000/svg" width="121.358" height="53.304" viewBox="0 0 121.358 53.304">
  <defs>
    <style>
      .cls-1 {
        fill: #333132;
      }

      .cls-2, .cls-4 {
        fill: #86004b;
      }

      .cls-3 {
        fill: #430046;
        opacity: 0.75;
      }

      .cls-4 {
        opacity: 0.86;
      }

      .cls-5 {
        fill: #77006f;
        opacity: 0.82;
      }

      .cls-6 {
        fill: none;
      }
    </style>
  </defs>
  <g id="Grupo_13" data-name="Grupo 13" transform="translate(-191.98 -196.129)">
    <g id="Grupo_10" data-name="Grupo 10" transform="translate(223.105 196.129)">
      <path id="Caminho_67" data-name="Caminho 67" class="cls-1" d="M327.342,221.578c2.959-7.176,5.681-15.32,8.581-22.4a4.406,4.406,0,0,1,4.5-3c2.426,0,5.148,2.087,5.148,4.276a3.116,3.116,0,0,1-.414,1.476L333.023,231.35c-1.243,3-3.136,4.479-5.74,4.479-2.426,0-4.2-1.374-5.326-4.072L309.411,201.83a5.541,5.541,0,0,1-.3-1.629c0-2.7,1.6-4.072,4.734-4.072a4.608,4.608,0,0,1,4.734,3Z" transform="translate(-309.115 -196.129)"/>
      <path id="Caminho_68" data-name="Caminho 68" class="cls-2" d="M452.754,200.444c0-2.8,1.6-4.123,4.734-4.123,3.2,0,4.793,1.323,4.793,4.123v31.4c0,2.8-1.6,4.123-4.793,4.123-3.136,0-4.734-1.323-4.734-4.123Z" transform="translate(-414.585 -196.27)"/>
      <path id="Caminho_69" data-name="Caminho 69" class="cls-1" d="M501.3,200.087c0-2.545,1.6-3.766,4.675-3.766,3.2,0,4.793,1.222,4.793,3.766v11.1l14.38-13.59a4.325,4.325,0,0,1,3.255-1.171c2.545,0,4.971,2.087,4.971,4.225a3.331,3.331,0,0,1-1.361,2.85c-3.787,3.614-6.332,5.853-10.238,9.569l11.48,16.135a3.342,3.342,0,0,1,1.184,2.7c0,2.7-3.491,4.123-4.793,4.123a5.312,5.312,0,0,1-4.142-1.883l-10.652-14.913-4.083,3.766V232.1c0,2.545-1.539,3.868-4.675,3.868-3.2,0-4.793-1.323-4.793-3.868Z" transform="translate(-450.232 -196.27)"/>
    </g>
    <path id="Caminho_70" data-name="Caminho 70" class="cls-3" d="M191.98,203.5l15.166,19.283L192.214,237.66" transform="translate(0 -5.414)"/>
    <path id="Caminho_71" data-name="Caminho 71" class="cls-4" d="M250.634,204.1l15.546,18.969-14.632,15.177" transform="translate(-43.068 -5.854)"/>
    <path id="Caminho_72" data-name="Caminho 72" class="cls-5" d="M222.532,207.319,237.1,226.278l-14.677,15.2" transform="translate(-22.357 -8.216)"/>
    <path id="Caminho_73" data-name="Caminho 73" class="cls-6" d="M284.7,355.5" transform="translate(-68.081 -117.024)"/>
    <g id="Grupo_11" data-name="Grupo 11" transform="translate(223.105 240.386)">
      <path id="Caminho_74" data-name="Caminho 74" class="cls-1" d="M357.337,377.518h-.586l1.659-7.853h-2.48l.115-.54h5.586l-.109.54H359Z" transform="translate(-355.931 -368.586)"/>
      <path id="Caminho_75" data-name="Caminho 75" class="cls-1" d="M374.688,382.246a1.963,1.963,0,0,1-1.55-.629,2.555,2.555,0,0,1-.557-1.753,5.012,5.012,0,0,1,.407-1.992,3.771,3.771,0,0,1,1.122-1.516,2.489,2.489,0,0,1,1.576-.562,1.506,1.506,0,0,1,1.045.35,1.216,1.216,0,0,1,.39.953,1.734,1.734,0,0,1-.938,1.585,5.662,5.662,0,0,1-2.787.545h-.19a4.161,4.161,0,0,0-.035.563,2.162,2.162,0,0,0,.425,1.444,1.521,1.521,0,0,0,1.223.5,3.5,3.5,0,0,0,1.584-.419v.539A3.829,3.829,0,0,1,374.688,382.246Zm.93-5.958a1.932,1.932,0,0,0-1.4.663,3.869,3.869,0,0,0-.933,1.771h.281q2.968,0,2.968-1.55a.859.859,0,0,0-.25-.634A.9.9,0,0,0,375.618,376.288Z" transform="translate(-367.449 -373.199)"/>
      <path id="Caminho_76" data-name="Caminho 76" class="cls-1" d="M392.017,382.246a2.022,2.022,0,0,1-1.576-.635,2.518,2.518,0,0,1-.577-1.759,5.13,5.13,0,0,1,.422-2.075,3.432,3.432,0,0,1,1.139-1.475,2.807,2.807,0,0,1,1.665-.508,3.68,3.68,0,0,1,1.383.247l-.161.517a3.087,3.087,0,0,0-1.251-.27,2.181,2.181,0,0,0-1.335.442,2.9,2.9,0,0,0-.933,1.274,4.828,4.828,0,0,0-.339,1.837,2.083,2.083,0,0,0,.422,1.4,1.492,1.492,0,0,0,1.2.491,3.578,3.578,0,0,0,.755-.075,3.62,3.62,0,0,0,.755-.264v.528A3.516,3.516,0,0,1,392.017,382.246Z" transform="translate(-379.405 -373.199)"/>
      <path id="Caminho_77" data-name="Caminho 77" class="cls-1" d="M409.849,376.307l.855-3.972a4.131,4.131,0,0,0,.121-.9.99.99,0,0,0-.25-.718,1.031,1.031,0,0,0-.772-.258,2.109,2.109,0,0,0-1.208.385,3.1,3.1,0,0,0-.953,1.079,5.967,5.967,0,0,0-.594,1.642l-.586,2.738H405.9l1.906-8.932h.551l-.493,2.359q-.253,1.148-.379,1.6h.035a3.3,3.3,0,0,1,1.07-1.008,2.6,2.6,0,0,1,1.317-.359,1.532,1.532,0,0,1,1.1.373,1.387,1.387,0,0,1,.39,1.051,5.218,5.218,0,0,1-.138,1.045l-.849,3.869Z" transform="translate(-390.499 -367.375)"/>
      <path id="Caminho_78" data-name="Caminho 78" class="cls-1" d="M441.776,382.106l-.143-.987h-.046a2.965,2.965,0,0,1-.968.852,2.579,2.579,0,0,1-1.174.25,2.031,2.031,0,0,1-1.429-.471,1.682,1.682,0,0,1-.511-1.3,1.607,1.607,0,0,1,.761-1.418,4.137,4.137,0,0,1,2.2-.534l1.188-.034v-.413a2.122,2.122,0,0,0-.362-1.343,1.4,1.4,0,0,0-1.165-.454,3.9,3.9,0,0,0-1.8.482l-.212-.494a4.753,4.753,0,0,1,2.032-.482,2.026,2.026,0,0,1,1.536.534,2.347,2.347,0,0,1,.508,1.665v4.15Zm-2.3-.4a1.987,1.987,0,0,0,2.153-2.158v-.614l-1.091.046a4.119,4.119,0,0,0-1.874.411,1.182,1.182,0,0,0-.56,1.082,1.163,1.163,0,0,0,.359.91A1.457,1.457,0,0,0,439.48,381.7Z" transform="translate(-412.362 -373.173)"/>
      <path id="Caminho_79" data-name="Caminho 79" class="cls-1" d="M463.628,382.079v-4.047a1.973,1.973,0,0,0-.4-1.369,1.6,1.6,0,0,0-1.228-.427,2.127,2.127,0,0,0-1.639.565,2.666,2.666,0,0,0-.519,1.834v3.444h-.568v-6.24h.482l.109.855h.035a2.345,2.345,0,0,1,2.164-.976q2.124,0,2.124,2.279v4.081Z" transform="translate(-427.424 -373.147)"/>
      <path id="Caminho_80" data-name="Caminho 80" class="cls-1" d="M483.247,369.947a2.59,2.59,0,0,1,1.171.247,2.33,2.33,0,0,1,.884.844h.035q-.034-.724-.035-1.418v-2.245h.563v8.932h-.373l-.144-.953H485.3a2.309,2.309,0,0,1-2.043,1.068,2.449,2.449,0,0,1-1.975-.8,3.527,3.527,0,0,1-.683-2.342,3.911,3.911,0,0,1,.677-2.474A2.363,2.363,0,0,1,483.247,369.947Zm0,.517a1.765,1.765,0,0,0-1.536.718,3.553,3.553,0,0,0-.514,2.084q0,2.652,2.061,2.652a1.87,1.87,0,0,0,1.55-.614,3.26,3.26,0,0,0,.494-2.027v-.1a3.474,3.474,0,0,0-.485-2.081A1.852,1.852,0,0,0,483.247,370.464Z" transform="translate(-442.175 -367.375)"/>
      <path id="Caminho_81" data-name="Caminho 81" class="cls-1" d="M518.247,375.084a2.015,2.015,0,0,1-.772,1.665,3.2,3.2,0,0,1-2.052.614,6.425,6.425,0,0,1-2.359-.339v-.585a5.97,5.97,0,0,0,2.313.385,2.591,2.591,0,0,0,1.639-.474,1.5,1.5,0,0,0,.606-1.243,1.434,1.434,0,0,0-.2-.789,1.836,1.836,0,0,0-.654-.571,8.075,8.075,0,0,0-1.332-.557,4.56,4.56,0,0,1-1.777-.956,2.047,2.047,0,0,1,.247-2.9,2.929,2.929,0,0,1,1.9-.594,5.557,5.557,0,0,1,2.222.448l-.212.505a5.18,5.18,0,0,0-2-.436,2.343,2.343,0,0,0-1.481.43,1.406,1.406,0,0,0-.551,1.171,1.53,1.53,0,0,0,.169.763,1.555,1.555,0,0,0,.554.537,7.6,7.6,0,0,0,1.32.571,7.123,7.123,0,0,1,1.475.657,2.108,2.108,0,0,1,.721.723A1.975,1.975,0,0,1,518.247,375.084Z" transform="translate(-464.632 -368.316)"/>
      <path id="Caminho_82" data-name="Caminho 82" class="cls-1" d="M536.879,382.194a2.718,2.718,0,0,1-2.121-.838,3.366,3.366,0,0,1-.761-2.348,3.661,3.661,0,0,1,.735-2.391,2.425,2.425,0,0,1,1.98-.9,2.138,2.138,0,0,1,1.739.769,3.175,3.175,0,0,1,.637,2.089v.459h-4.495a2.95,2.95,0,0,0,.6,1.963,2.111,2.111,0,0,0,1.685.677,5.214,5.214,0,0,0,.939-.075,5.7,5.7,0,0,0,1.024-.321v.517a4.587,4.587,0,0,1-.976.313A5.449,5.449,0,0,1,536.879,382.194Zm-.166-5.97a1.869,1.869,0,0,0-1.447.594,2.8,2.8,0,0,0-.637,1.713h3.857a2.721,2.721,0,0,0-.471-1.7A1.553,1.553,0,0,0,536.712,376.224Z" transform="translate(-479.114 -373.147)"/>
      <path id="Caminho_83" data-name="Caminho 83" class="cls-1" d="M558.561,375.719a4.877,4.877,0,0,1,.85.08l-.109.546a3.33,3.33,0,0,0-.809-.1,1.572,1.572,0,0,0-1.309.677,2.762,2.762,0,0,0-.511,1.711v3.444H556.1v-6.24h.482l.057,1.125h.04A2.647,2.647,0,0,1,557.5,376,1.924,1.924,0,0,1,558.561,375.719Z" transform="translate(-494.407 -373.147)"/>
      <path id="Caminho_84" data-name="Caminho 84" class="cls-1" d="M569.969,382.35l-2.411-6.24h.586l1.613,4.242a13.111,13.111,0,0,1,.482,1.424h.035q.235-.781.482-1.435l1.613-4.231h.585l-2.411,6.24Z" transform="translate(-502.33 -373.418)"/>
      <path id="Caminho_85" data-name="Caminho 85" class="cls-1" d="M588.193,369.249q0-.551.362-.551a.322.322,0,0,1,.278.144.705.705,0,0,1,.1.407.723.723,0,0,1-.1.407.318.318,0,0,1-.278.149Q588.193,369.806,588.193,369.249Zm.649,7.973h-.568v-6.24h.568Z" transform="translate(-516.605 -368.29)"/>
      <path id="Caminho_86" data-name="Caminho 86" class="cls-1" d="M598.757,382.194a2.672,2.672,0,0,1-2.1-.844A3.4,3.4,0,0,1,595.9,379a3.456,3.456,0,0,1,.786-2.414,2.766,2.766,0,0,1,2.153-.864,4.332,4.332,0,0,1,1.55.281l-.155.505a4.554,4.554,0,0,0-1.406-.27,2.135,2.135,0,0,0-1.739.709,3.107,3.107,0,0,0-.591,2.04,3.014,3.014,0,0,0,.591,1.978,2.027,2.027,0,0,0,1.653.715,4.055,4.055,0,0,0,1.579-.3v.528A3.581,3.581,0,0,1,598.757,382.194Z" transform="translate(-521.94 -373.147)"/>
      <path id="Caminho_87" data-name="Caminho 87" class="cls-1" d="M616.907,382.194a2.719,2.719,0,0,1-2.121-.838,3.366,3.366,0,0,1-.761-2.348,3.659,3.659,0,0,1,.735-2.391,2.425,2.425,0,0,1,1.98-.9,2.138,2.138,0,0,1,1.739.769,3.177,3.177,0,0,1,.637,2.089v.459h-4.494a2.95,2.95,0,0,0,.6,1.963,2.111,2.111,0,0,0,1.685.677,5.209,5.209,0,0,0,.939-.075,5.7,5.7,0,0,0,1.025-.321v.517a4.589,4.589,0,0,1-.976.313A5.451,5.451,0,0,1,616.907,382.194Zm-.166-5.97a1.869,1.869,0,0,0-1.447.594,2.8,2.8,0,0,0-.637,1.713h3.857a2.721,2.721,0,0,0-.471-1.7A1.554,1.554,0,0,0,616.74,376.224Z" transform="translate(-534.475 -373.147)"/>
      <path id="Caminho_88" data-name="Caminho 88" class="cls-1" d="M638.739,380.455a1.483,1.483,0,0,1-.637,1.289,3.1,3.1,0,0,1-1.808.451,4.306,4.306,0,0,1-1.986-.385V381.2a4.383,4.383,0,0,0,1.986.471,2.62,2.62,0,0,0,1.4-.307.933.933,0,0,0,.479-.818,1,1,0,0,0-.382-.792,4.208,4.208,0,0,0-1.254-.631,7.174,7.174,0,0,1-1.314-.583,1.807,1.807,0,0,1-.571-.551,1.38,1.38,0,0,1-.192-.749,1.28,1.28,0,0,1,.588-1.108,2.858,2.858,0,0,1,1.645-.408,4.923,4.923,0,0,1,1.917.379l-.213.517a4.492,4.492,0,0,0-1.7-.379,2.469,2.469,0,0,0-1.211.252.775.775,0,0,0-.448.7.969.969,0,0,0,.347.781,4.84,4.84,0,0,0,1.357.654,6.677,6.677,0,0,1,1.229.548,1.785,1.785,0,0,1,.577.554A1.354,1.354,0,0,1,638.739,380.455Z" transform="translate(-548.506 -373.147)"/>
    </g>
  </g>
</svg>
